<svg width="34" height="22" viewBox="0 0 34 22" fill="none" xmlns="http://www.w3.org/2000/svg">
<path d="M7.84495 21.0299C6.20764 21.0299 4.80234 20.6156 3.62904 19.787C2.46237 18.9517 1.56417 17.7486 0.934437 16.1776C0.311331 14.5999 -0.000221908 12.7008 -0.000221908 10.4802C0.00640687 8.25951 0.321274 6.37031 0.94438 4.81254C1.57412 3.24815 2.47232 2.05497 3.63898 1.233C4.81228 0.411029 6.21427 4.36306e-05 7.84495 4.36306e-05C9.47563 4.36306e-05 10.8776 0.411029 12.0509 1.233C13.2242 2.05497 14.1224 3.24815 14.7455 4.81254C15.3753 6.37694 15.6901 8.26614 15.6901 10.4802C15.6901 12.7074 15.3753 14.6099 14.7455 16.1875C14.1224 17.7586 13.2242 18.9584 12.0509 19.787C10.8842 20.6156 9.48226 21.0299 7.84495 21.0299ZM7.84495 17.9177C9.11768 17.9177 10.1219 17.2912 10.8577 16.0384C11.6002 14.7789 11.9714 12.9262 11.9714 10.4802C11.9714 8.86273 11.8023 7.50383 11.4643 6.40345C11.1262 5.30307 10.6489 4.47448 10.0324 3.91766C9.41597 3.35421 8.68681 3.07249 7.84495 3.07249C6.57885 3.07249 5.5779 3.70222 4.84211 4.96169C4.10631 6.21453 3.7351 8.05402 3.72847 10.4802C3.72184 12.1042 3.88425 13.4697 4.21569 14.5767C4.55376 15.6838 5.03103 16.519 5.64751 17.0824C6.26398 17.6392 6.99646 17.9177 7.84495 17.9177ZM26.0733 20.9205C24.7475 20.9205 23.561 20.6719 22.5136 20.1748C21.4663 19.671 20.6344 18.9816 20.0179 18.1066C19.408 17.2316 19.0832 16.2306 19.0435 15.1037H22.623C22.6893 15.939 23.0506 16.6217 23.7068 17.152C24.3631 17.6757 25.1519 17.9375 26.0733 17.9375C26.7958 17.9375 27.4388 17.7718 28.0023 17.4404C28.5657 17.1089 29.0098 16.6482 29.3347 16.0583C29.6595 15.4683 29.8186 14.7955 29.8119 14.0398C29.8186 13.2709 29.6561 12.5881 29.3247 11.9915C28.9933 11.3949 28.5392 10.9276 27.9625 10.5895C27.3858 10.2448 26.7229 10.0725 25.9739 10.0725C25.364 10.0659 24.7641 10.1785 24.1741 10.4106C23.5842 10.6426 23.1168 10.9475 22.7722 11.3253L19.4412 10.7785L20.5051 0.278453H32.3176V3.36084H23.5577L22.971 8.75999H23.0903C23.4682 8.31586 24.0018 7.94796 24.6912 7.65629C25.3806 7.358 26.1363 7.20885 26.9582 7.20885C28.1912 7.20885 29.2916 7.50052 30.2594 8.08385C31.2272 8.66056 31.9895 9.45601 32.5463 10.4702C33.1031 11.4844 33.3815 12.6445 33.3815 13.9503C33.3815 15.296 33.07 16.4958 32.4469 17.5498C31.8304 18.5971 30.972 19.4224 29.8716 20.0256C28.7778 20.6222 27.5117 20.9205 26.0733 20.9205Z" fill="#6C757D"/>
</svg>
